# xmcd
#
# Track frame offsets:
#	150
#	16898
#	36309
#	55078
#	70542
#	88943
#	108353
#	118644
#	135320
#	154923
#	171110
#	189519
#	208385
#	224376
#	240148
#
# Disc length: 3382 seconds
#
# Revision: 4
# Processed by: cddbd v1.5.2PL0 Copyright (c) Steve Scherf et al.
# Submitted via: jack 3.1.1
#
DISCID=ca0d340f
DTITLE=Various Artist - Rivers and Rails: A Tribute to Alberta
DYEAR=2005
DGENRE=Folk
TTITLE0=Ralph Boyd Johnson and Black Powder Drummers - Rivers and Rails
TTITLE1=Stuart MacDougall - The Days I'm With The Horses
TTITLE2=Kris Demeanor - Breaking New Ground
TTITLE3=Steve Pineo - Canadian Whiskey, American Guns
TTITLE4=Camie Leard - The Dustbowl Gospel
TTITLE5=Brian Geoffroy - The Claim
TTITLE6=Mark Sadlier-Brown - Dry Hole Hunter
TTITLE7=Crystal Plamondon - Plus De Frontières
TTITLE8=Ruth Purves Smith - Big Skies
TTITLE9=Conrad Walz - Vulcan Girl
TTITLE10=Jim Kukko and A.J. Kukko - The Great Divide
TTITLE11=Tom Phillips - Roughneck's Lament
TTITLE12=Kit Johnson - A Lotta Bull
TTITLE13=Chris Byrne and Kelly Kruse - Roll Chuck Wagon Roll
TTITLE14=Black Powder Drummers - Crow Hop
EXTD=
EXTT0=
EXTT1=
EXTT2=
EXTT3=
EXTT4=
EXTT5=
EXTT6=
EXTT7=
EXTT8=
EXTT9=
EXTT10=
EXTT11=
EXTT12=
EXTT13=
EXTT14=
PLAYORDER=
